<svg width="297" height="116" viewBox="0 0 297 116" fill="none" xmlns="http://www.w3.org/2000/svg">
<path d="M264.324 72.9012C264.268 72.8502 264.198 72.8145 264.122 72.7981C264.045 72.7817 263.966 72.7851 263.891 72.8081C262.126 73.3643 260.331 73.8384 258.515 74.2283C255.372 74.8947 252.159 75.2333 248.935 75.238C238.774 75.238 233.187 70.3218 232.175 60.4893C232.172 60.4621 232.175 60.4347 232.185 60.4089C232.194 60.383 232.209 60.3592 232.229 60.3391C232.249 60.3189 232.274 60.3028 232.3 60.2917C232.327 60.2805 232.356 60.2746 232.386 60.2744H274.91C274.965 60.2744 275.019 60.2541 275.058 60.2179C275.098 60.1818 275.12 60.1326 275.121 60.0811V56.4577C275.121 36.6177 265.58 26.6978 246.498 26.6978C236.342 26.6978 228.448 29.3647 222.814 34.6987C217.181 40.0326 214.364 47.4686 214.364 57.0067C214.364 66.5814 217.24 74.0604 222.992 79.4437C228.744 84.827 236.659 87.521 246.736 87.5258C255.852 87.3327 264.817 85.326 273.022 81.6421C273.083 81.6166 273.137 81.5777 273.179 81.5287C273.221 81.4797 273.249 81.422 273.261 81.3607C273.273 81.2994 273.269 81.2362 273.249 81.1767C273.229 81.1172 273.193 81.0631 273.146 81.0191L264.324 72.9012ZM238.136 41.7496C240.433 39.8958 243.423 38.9475 246.465 39.1073C252.776 39.1073 256.179 42.6009 256.676 49.5882C256.678 49.6117 256.674 49.6352 256.665 49.6573C256.657 49.6794 256.643 49.6996 256.626 49.7168C256.609 49.734 256.587 49.7477 256.564 49.7572C256.541 49.7667 256.516 49.7717 256.491 49.772H234.387C234.36 49.7716 234.334 49.7659 234.309 49.7552C234.285 49.7446 234.263 49.7293 234.246 49.7103C234.229 49.6913 234.216 49.669 234.209 49.6451C234.201 49.6212 234.2 49.5961 234.204 49.5715C234.554 46.636 235.935 43.8879 238.136 41.7496Z" fill="white"/>
<path d="M86.8317 34.4096C84.2104 31.8039 81.0014 29.7646 77.4325 28.4366C73.8636 27.1087 70.0225 26.5247 66.1823 26.7261C65.1818 26.7261 33.4908 26.7739 32.5341 26.8693C27.4452 27.3533 22.6743 29.3885 18.9707 32.6552C18.9126 32.708 18.8389 32.7436 18.7589 32.7577C18.6789 32.7717 18.5962 32.7636 18.5212 32.7342C18.4463 32.7049 18.3824 32.6557 18.3375 32.5927C18.2927 32.5298 18.269 32.4561 18.2693 32.3807V0.396112C18.2693 0.295458 18.2261 0.198933 18.1493 0.12776C18.0724 0.056586 17.9681 0.0166016 17.8594 0.0166016H9.72389C9.61392 0.0174255 9.50857 0.0576239 9.42993 0.128779L0.121194 8.74553C0.0825136 8.78069 0.0518312 8.82266 0.0310127 8.869C0.0101942 8.91533 -0.000328728 8.96509 7.82486e-06 9.01527V87.1627C7.82486e-06 87.2634 0.0432033 87.3599 0.120093 87.4311C0.196982 87.5022 0.301258 87.5422 0.409996 87.5422H28.741C29.7106 87.5422 61.3809 87.5184 62.3144 87.473C70.7219 87.4038 78.7936 84.4096 84.9261 79.0854C91.1147 73.4491 94.209 65.7465 94.209 55.9777C94.209 46.726 91.7499 39.5383 86.8317 34.4144M74.1424 68.2058C72.1938 70.1003 69.624 71.3463 66.8321 71.7504C66.5657 71.7952 66.2957 71.8184 66.025 71.8196C63.0338 71.8531 32.6321 72.0583 31.5156 72.0583C28.8751 72.0822 22.3796 72.0583 21.4178 72.0583C21.3959 72.0593 21.374 72.0562 21.3535 72.0492C21.3329 72.0423 21.314 72.0316 21.2979 72.0179C21.2818 72.0041 21.2689 71.9875 21.2598 71.969C21.2507 71.9506 21.2457 71.9306 21.2451 71.9103V50.4974C21.2411 50.4705 21.2411 50.4431 21.2451 50.4162C21.9234 48.2408 23.4149 46.3593 25.4533 45.1077C27.6951 43.732 30.3405 43.0294 33.0292 43.0956C33.3748 43.0956 66.9713 43.0956 67.3014 43.1242C68.7786 43.1456 70.2328 43.4664 71.5617 44.0639C72.8906 44.6615 74.0619 45.5213 74.9933 46.5828C77.2107 49.6205 78.2631 53.2589 77.9819 56.9158C78.2987 60.9979 76.9198 65.0379 74.1269 68.2106" fill="white"/>
<path d="M278.705 0.801999V86.1556C278.705 86.2593 278.727 86.3621 278.77 86.4579C278.813 86.5538 278.876 86.6408 278.955 86.7142C279.034 86.7876 279.128 86.8458 279.232 86.8855C279.335 86.9252 279.447 86.9456 279.559 86.9456H296.111C296.223 86.9456 296.334 86.9252 296.437 86.8855C296.541 86.8458 296.635 86.7876 296.714 86.7142C296.793 86.6408 296.856 86.5538 296.899 86.4579C296.942 86.3621 296.964 86.2593 296.964 86.1556V8.91275C296.963 8.80853 296.939 8.70553 296.895 8.60968C296.851 8.51384 296.787 8.42702 296.706 8.35419L287.939 0.238706C287.86 0.164144 287.767 0.104659 287.663 0.063701C287.559 0.0227426 287.448 0.00110033 287.336 0H279.538C279.311 0 279.095 0.083255 278.934 0.231421C278.774 0.379588 278.684 0.580513 278.684 0.790052" fill="white"/>
<path d="M146.825 72.9081C146.769 72.8571 146.699 72.8215 146.623 72.805C146.546 72.7886 146.467 72.7921 146.392 72.8151C144.627 73.3714 142.832 73.8453 141.016 74.2352C137.873 74.9016 134.66 75.2403 131.436 75.2449C121.275 75.2449 115.688 70.3287 114.675 60.4962C114.673 60.469 114.676 60.4416 114.686 60.4158C114.695 60.39 114.711 60.3663 114.73 60.3461C114.75 60.3259 114.774 60.3097 114.801 60.2986C114.828 60.2875 114.857 60.2816 114.887 60.2814H157.408C157.463 60.2814 157.517 60.2611 157.556 60.2249C157.596 60.1887 157.619 60.1396 157.619 60.0881V56.4575C157.619 36.6143 148.078 26.6927 128.997 26.6927C118.841 26.6927 110.946 29.3598 105.312 34.6937C99.6791 40.0277 96.8624 47.4645 96.8624 57.0041C96.8624 66.5804 99.7384 74.0594 105.49 79.4411C111.242 84.8228 119.157 87.5168 129.234 87.5232C138.351 87.3301 147.316 85.3226 155.52 81.6371C155.582 81.6116 155.636 81.5728 155.677 81.5237C155.719 81.4747 155.747 81.4171 155.759 81.3558C155.771 81.2944 155.767 81.2313 155.747 81.1718C155.727 81.1122 155.692 81.0582 155.644 81.0141L146.825 72.9081ZM120.637 41.7542C122.934 39.9005 125.923 38.952 128.966 39.1119C135.275 39.1119 138.679 42.6063 139.177 49.5952C139.179 49.6186 139.175 49.6421 139.166 49.6642C139.157 49.6863 139.144 49.7066 139.127 49.7237C139.109 49.7409 139.088 49.7547 139.065 49.7642C139.042 49.7736 139.017 49.7787 138.992 49.779H116.885C116.858 49.7786 116.832 49.7728 116.808 49.7622C116.783 49.7515 116.762 49.7362 116.744 49.7172C116.727 49.6983 116.714 49.6761 116.707 49.6521C116.7 49.6282 116.698 49.6031 116.702 49.5785C117.053 46.6419 118.435 43.893 120.637 41.7542Z" fill="white"/>
<path d="M218.809 27.8505H201.017L191.618 53.9347C190.508 57.4196 189.179 62.0915 187.632 67.9506C187.384 68.9738 186.996 70.4354 186.469 72.3353C186.456 72.3765 186.43 72.4129 186.393 72.4388C186.356 72.4647 186.311 72.4786 186.265 72.4786C186.219 72.4786 186.174 72.4647 186.137 72.4388C186.1 72.4129 186.074 72.3765 186.061 72.3353L185.311 69.6166C183.527 62.7948 182.019 57.6041 180.788 54.0445L171.387 27.8505H153.352L175.293 87.5233H192.57C192.605 87.5238 192.639 87.5177 192.672 87.5054C192.704 87.493 192.734 87.4748 192.758 87.4517L198.998 81.6181C199.026 81.5926 199.047 81.5616 199.06 81.5274L218.812 27.8457" fill="white"/>
<path d="M208.09 96.8251C206.794 96.8099 205.514 97.0858 204.359 97.6291C203.204 98.1725 202.208 98.9671 201.458 99.9448C200.953 98.9229 200.116 98.0727 199.063 97.5133C198.01 96.9539 196.794 96.7133 195.586 96.8251C194.379 96.8083 193.183 97.0472 192.09 97.5238C190.997 98.0004 190.037 98.7019 189.282 99.5747L188.882 97.1258H186.046V114.789H189.524V102.294C190.111 101.485 190.909 100.828 191.845 100.384C192.789 99.914 193.844 99.668 194.916 99.6678C195.425 99.6235 195.939 99.68 196.423 99.8335C196.908 99.987 197.351 100.234 197.724 100.558C198.381 101.378 198.69 102.393 198.593 103.41V114.782H202.09V103.31C202.093 103.086 202.082 102.862 202.054 102.64C202.031 102.472 202.018 102.365 202.018 102.32C202.586 101.49 203.38 100.813 204.32 100.358C205.282 99.8952 206.351 99.6591 207.435 99.6702C207.942 99.6283 208.452 99.686 208.933 99.8394C209.414 99.9929 209.854 100.239 210.225 100.561C210.882 101.381 211.191 102.396 211.094 103.413V114.784H214.593V103.174C214.729 101.453 214.134 99.7508 212.935 98.4291C212.293 97.8641 211.531 97.4293 210.697 97.1523C209.864 96.8753 208.976 96.7622 208.093 96.8203" fill="white"/>
<path d="M233.827 111.92C232.908 112.111 231.969 112.206 231.027 112.204C230.274 112.245 229.52 112.136 228.817 111.885C228.114 111.633 227.477 111.245 226.95 110.745C225.898 109.56 225.333 108.069 225.357 106.535H238.672V105.819C238.868 103.424 238.174 101.039 236.705 99.059C235.962 98.2869 235.037 97.6839 234.002 97.2968C232.967 96.9097 231.849 96.749 230.735 96.8273C229.512 96.7583 228.287 96.9361 227.145 97.3482C226.003 97.7603 224.972 98.3969 224.121 99.2142C222.597 101.173 221.779 103.527 221.785 105.941C221.792 108.355 222.622 110.706 224.157 112.657C225.02 113.479 226.064 114.118 227.218 114.532C228.372 114.946 229.608 115.125 230.844 115.056C232.011 115.055 233.174 114.917 234.304 114.646C235.565 114.331 236.789 113.902 237.958 113.364L235.79 111.356C235.15 111.585 234.494 111.773 233.827 111.92ZM230.733 99.6748C231.295 99.6463 231.857 99.7247 232.385 99.9049C232.913 100.085 233.396 100.363 233.804 100.723C234.615 101.582 235.062 102.685 235.062 103.826H225.521C225.616 102.636 226.217 101.529 227.192 100.749C228.167 99.969 229.437 99.5793 230.722 99.6654" fill="white"/>
<path d="M258.473 97.312C257.148 97.0205 255.794 96.8604 254.433 96.8345C253.11 96.7647 251.786 96.9516 250.545 97.3832C249.305 97.8148 248.176 98.4817 247.23 99.3409C245.618 101.243 244.709 103.575 244.635 105.992C244.562 108.409 245.329 110.784 246.823 112.767C247.608 113.548 248.57 114.159 249.64 114.556C250.71 114.954 251.861 115.128 253.012 115.066C254.064 115.078 255.107 114.875 256.065 114.472C257.073 114.013 257.966 113.362 258.685 112.562L259.175 114.758H261.947V90.6024H258.468V97.312H258.473ZM258.473 108.752C258.087 109.774 257.377 110.663 256.434 111.302C255.5 111.912 254.379 112.229 253.236 112.206C252.526 112.241 251.817 112.117 251.169 111.845C250.521 111.574 249.953 111.162 249.513 110.645C248.599 109.241 248.145 107.621 248.204 105.983C248.264 104.345 248.835 102.757 249.848 101.413C250.431 100.825 251.148 100.364 251.947 100.064C252.746 99.7639 253.608 99.6319 254.469 99.6775C255.062 99.6728 255.654 99.7039 256.243 99.7705C256.738 99.8326 257.481 99.9749 258.473 100.198V108.752Z" fill="white"/>
<path d="M274.074 90.6047H270.595V93.9082H274.074V90.6047Z" fill="white"/>
<path d="M274.074 95.6627H270.595V114.789H274.074V95.6627Z" fill="white"/>
<path d="M295.046 98.5962C294.298 97.9856 293.427 97.5179 292.483 97.2201C291.539 96.9223 290.541 96.8003 289.546 96.861C288.346 96.8674 287.152 96.9995 285.985 97.2548C284.771 97.5107 283.589 97.8842 282.46 98.3694L283.421 100.995C284.426 100.614 285.461 100.302 286.516 100.064C287.422 99.8496 288.353 99.7343 289.288 99.7205C289.845 99.6546 290.411 99.706 290.944 99.8708C291.476 100.036 291.962 100.31 292.364 100.672C292.766 101.035 293.075 101.477 293.267 101.966C293.459 102.455 293.53 102.977 293.473 103.494V103.972H290.665C288.241 103.84 285.831 104.384 283.744 105.533C283.053 105.982 282.477 106.565 282.056 107.241C281.634 107.918 281.378 108.672 281.304 109.45C281.23 110.228 281.341 111.012 281.629 111.746C281.917 112.48 282.375 113.147 282.97 113.701C284.232 114.7 285.86 115.212 287.519 115.133C289.867 115.123 292.117 114.262 293.787 112.734L294.303 114.799H296.985V103.561C297.049 102.656 296.91 101.749 296.579 100.896C296.247 100.043 295.729 99.2627 295.056 98.6034M293.488 110.084C292.839 110.778 292.026 111.326 291.114 111.686C290.18 112.076 289.167 112.279 288.143 112.28C287.26 112.33 286.385 112.102 285.66 111.633C285.363 111.412 285.128 111.129 284.973 110.807C284.818 110.485 284.749 110.133 284.77 109.781C284.765 109.273 284.914 108.774 285.199 108.34C285.484 107.906 285.895 107.555 286.384 107.325C287.779 106.671 289.334 106.368 290.894 106.444H293.486L293.488 110.084Z" fill="white"/>
<path d="M218.809 27.8505H201.017L191.616 53.9347C190.505 57.4196 189.176 62.0915 187.629 67.9506C187.382 68.9738 186.994 70.4354 186.466 72.3354C186.455 72.377 186.429 72.4139 186.392 72.4403C186.355 72.4667 186.31 72.481 186.264 72.481C186.217 72.481 186.172 72.4667 186.135 72.4403C186.099 72.4139 186.073 72.377 186.061 72.3354L185.311 69.6167C183.527 62.7949 182.019 57.6042 180.788 54.0445L171.386 27.8505H153.352L175.293 87.5233H179.612L196.889 87.5591L199.032 81.5751L218.802 27.8434" fill="white"/>
</svg>
