<?xml version="1.0" encoding="utf-8"?>
<!-- Generator: Adobe Illustrator 23.0.1, SVG Export Plug-In . SVG Version: 6.00 Build 0)  -->
<svg version="1.1" id="Camada_1" xmlns="http://www.w3.org/2000/svg" xmlns:xlink="http://www.w3.org/1999/xlink" x="0px" y="0px"
	 viewBox="0 0 1080 1080" style="enable-background:new 0 0 1080 1080;" xml:space="preserve">
<style type="text/css">
	.st0{fill:#FFFFFF;}
</style>
<g>
	<g>
		<path class="st0" d="M230.51,342c-1.81-0.01-3.43-0.33-4.85-0.97c-1.42-0.64-2.53-1.59-3.35-2.84c-0.82-1.25-1.22-2.82-1.22-4.7
			c0-1.58,0.3-2.91,0.88-3.98c0.58-1.07,1.38-1.93,2.38-2.58c1-0.65,2.14-1.14,3.42-1.47c1.28-0.33,2.62-0.56,4.03-0.69
			c1.65-0.17,2.99-0.33,4-0.48c1.01-0.15,1.75-0.38,2.21-0.69s0.69-0.76,0.69-1.37l0-0.11c0-1.17-0.36-2.08-1.09-2.72
			c-0.73-0.64-1.77-0.97-3.12-0.97c-1.42,0-2.55,0.3-3.39,0.92s-1.4,1.4-1.67,2.34l-7.29-0.61c0.38-1.73,1.11-3.22,2.2-4.48
			c1.09-1.26,2.5-2.23,4.22-2.91c1.72-0.68,3.72-1.02,5.99-1.01c1.58,0,3.09,0.19,4.54,0.57c1.45,0.37,2.74,0.95,3.86,1.73
			c1.13,0.78,2.02,1.78,2.67,3c0.65,1.22,0.97,2.67,0.97,4.36l-0.06,19.18l-7.48-0.02l0.01-3.94l-0.22,0
			c-0.46,0.89-1.07,1.67-1.84,2.34c-0.77,0.67-1.69,1.19-2.76,1.56S231.91,342,230.51,342z M232.78,336.56
			c1.16,0,2.19-0.23,3.08-0.68c0.89-0.46,1.59-1.08,2.1-1.87c0.51-0.79,0.76-1.68,0.77-2.68l0.01-3.02
			c-0.25,0.16-0.58,0.3-1.01,0.43c-0.43,0.13-0.9,0.24-1.44,0.35c-0.53,0.1-1.06,0.19-1.59,0.27c-0.53,0.08-1.01,0.15-1.44,0.21
			c-0.93,0.13-1.73,0.35-2.43,0.64c-0.69,0.29-1.23,0.69-1.61,1.19c-0.38,0.5-0.58,1.12-0.58,1.86c0,1.07,0.39,1.89,1.17,2.46
			C230.58,336.27,231.57,336.56,232.78,336.56z"/>
		<path class="st0" d="M252.62,352.19l0.12-39.1l7.77,0.02l-0.01,4.78l0.35,0c0.35-0.76,0.85-1.54,1.52-2.34s1.53-1.46,2.6-1.99
			c1.07-0.53,2.4-0.8,3.99-0.79c2.07,0.01,3.98,0.55,5.73,1.64c1.75,1.09,3.15,2.71,4.19,4.88c1.04,2.17,1.56,4.88,1.55,8.14
			c-0.01,3.17-0.53,5.85-1.55,8.02c-1.02,2.17-2.41,3.82-4.16,4.93c-1.75,1.11-3.7,1.66-5.86,1.66c-1.53,0-2.83-0.26-3.89-0.77
			c-1.07-0.51-1.94-1.15-2.61-1.92c-0.68-0.77-1.19-1.56-1.55-2.35l-0.24,0l-0.05,15.22L252.62,352.19z M260.41,327.33
			c-0.01,1.69,0.22,3.17,0.69,4.43c0.46,1.26,1.14,2.24,2.03,2.94c0.89,0.7,1.96,1.05,3.24,1.06c1.28,0,2.37-0.35,3.26-1.05
			c0.89-0.71,1.57-1.69,2.04-2.96s0.7-2.72,0.71-4.38c0-1.64-0.22-3.09-0.67-4.33s-1.12-2.23-2.01-2.93s-1.98-1.06-3.27-1.06
			c-1.28,0-2.37,0.33-3.25,1.01c-0.88,0.68-1.56,1.64-2.04,2.88C260.65,324.17,260.42,325.64,260.41,327.33z"/>
		<path class="st0" d="M298.57,342.22c-2.92-0.01-5.44-0.61-7.54-1.81c-2.1-1.2-3.71-2.89-4.84-5.09c-1.13-2.19-1.69-4.79-1.68-7.79
			c0.01-2.92,0.58-5.49,1.73-7.7c1.14-2.21,2.75-3.92,4.82-5.15c2.07-1.23,4.5-1.84,7.29-1.83c1.88,0.01,3.62,0.31,5.25,0.91
			c1.62,0.6,3.04,1.51,4.25,2.71s2.15,2.71,2.83,4.52c0.67,1.81,1.01,3.93,1,6.34l-0.01,2.17l-24.01-0.07l0.02-4.89l16.59,0.05
			c0-1.14-0.24-2.14-0.73-3.02c-0.49-0.88-1.17-1.57-2.04-2.07c-0.87-0.5-1.88-0.76-3.02-0.76c-1.2,0-2.26,0.27-3.18,0.81
			c-0.92,0.55-1.64,1.28-2.16,2.2c-0.52,0.92-0.79,1.94-0.81,3.06l-0.01,4.65c0,1.41,0.25,2.62,0.78,3.65
			c0.52,1.03,1.26,1.82,2.22,2.38c0.96,0.56,2.1,0.84,3.42,0.84c0.88,0,1.68-0.12,2.41-0.36c0.73-0.24,1.35-0.61,1.87-1.1
			c0.52-0.49,0.92-1.1,1.19-1.81l7.29,0.5c-0.38,1.75-1.14,3.28-2.28,4.57c-1.15,1.3-2.62,2.31-4.42,3.02
			C302.99,341.88,300.92,342.23,298.57,342.22z"/>
		<path class="st0" d="M316.77,341.72l0.09-28.43l7.65,0.02l-0.02,4.96l0.3,0c0.52-1.76,1.4-3.1,2.62-4
			c1.22-0.9,2.63-1.35,4.22-1.35c0.4,0,0.82,0.03,1.28,0.08c0.46,0.05,0.86,0.12,1.2,0.21l-0.02,7c-0.37-0.11-0.88-0.21-1.54-0.3
			c-0.65-0.09-1.25-0.13-1.8-0.13c-1.16,0-2.19,0.24-3.1,0.74c-0.91,0.5-1.63,1.19-2.15,2.08c-0.53,0.89-0.79,1.91-0.8,3.07
			l-0.05,16.09L316.77,341.72z"/>
		<path class="st0" d="M354.72,313.4l-0.02,5.92l-17.12-0.05l0.02-5.92L354.72,313.4z M341.5,306.55l7.89,0.02l-0.08,26.51
			c0,0.73,0.11,1.29,0.33,1.69c0.22,0.4,0.53,0.68,0.93,0.85c0.4,0.16,0.87,0.24,1.4,0.25c0.37,0,0.74-0.03,1.11-0.1
			c0.37-0.07,0.65-0.12,0.85-0.16l1.22,5.87c-0.4,0.12-0.95,0.27-1.67,0.43c-0.72,0.16-1.59,0.26-2.61,0.3
			c-1.9,0.07-3.56-0.19-4.99-0.77c-1.42-0.58-2.53-1.49-3.31-2.71c-0.79-1.22-1.17-2.77-1.15-4.63L341.5,306.55z"/>
		<path class="st0" d="M367.86,342.42c-1.81-0.01-3.43-0.33-4.85-0.97c-1.42-0.64-2.53-1.59-3.35-2.84
			c-0.82-1.25-1.22-2.82-1.22-4.7c0-1.58,0.3-2.91,0.88-3.98c0.58-1.07,1.38-1.93,2.38-2.58c1-0.65,2.14-1.14,3.42-1.47
			c1.28-0.33,2.62-0.56,4.03-0.69c1.65-0.17,2.99-0.33,4-0.48c1.01-0.15,1.75-0.38,2.21-0.69s0.69-0.76,0.69-1.37l0-0.11
			c0-1.17-0.36-2.08-1.09-2.72c-0.73-0.64-1.77-0.97-3.12-0.97c-1.42,0-2.55,0.3-3.39,0.92c-0.84,0.62-1.4,1.4-1.67,2.34l-7.29-0.61
			c0.38-1.73,1.11-3.22,2.2-4.48c1.09-1.26,2.5-2.23,4.22-2.91c1.72-0.68,3.72-1.02,5.99-1.01c1.58,0,3.09,0.19,4.54,0.57
			c1.45,0.38,2.74,0.95,3.86,1.73c1.13,0.78,2.02,1.78,2.67,3c0.65,1.22,0.97,2.67,0.97,4.36l-0.06,19.18l-7.48-0.02l0.01-3.94
			l-0.22,0c-0.46,0.89-1.07,1.67-1.84,2.34c-0.77,0.67-1.69,1.19-2.76,1.56C370.51,342.24,369.27,342.42,367.86,342.42z
			 M370.14,336.98c1.16,0,2.19-0.23,3.08-0.68c0.89-0.46,1.59-1.08,2.1-1.87c0.51-0.79,0.76-1.68,0.77-2.68l0.01-3.02
			c-0.25,0.16-0.58,0.3-1.01,0.43c-0.43,0.13-0.9,0.24-1.44,0.35c-0.53,0.1-1.06,0.19-1.59,0.27c-0.53,0.08-1.01,0.15-1.44,0.21
			c-0.93,0.13-1.73,0.35-2.43,0.64c-0.69,0.29-1.23,0.69-1.61,1.19c-0.38,0.5-0.58,1.12-0.58,1.86c0,1.07,0.39,1.89,1.17,2.46
			C367.93,336.69,368.93,336.98,370.14,336.98z"/>
		<path class="st0" d="M414.94,342.58c-2.88-0.01-5.36-0.63-7.44-1.86c-2.09-1.23-3.7-2.95-4.83-5.16
			c-1.13-2.21-1.69-4.77-1.68-7.68c0.01-2.94,0.58-5.51,1.73-7.71c1.14-2.2,2.76-3.91,4.86-5.13s4.58-1.83,7.46-1.82
			s5.36,0.63,7.45,1.86c2.09,1.23,3.7,2.96,4.83,5.16c1.13,2.21,1.69,4.78,1.68,7.72c-0.01,2.91-0.58,5.47-1.73,7.67
			c-1.14,2.2-2.76,3.91-4.86,5.13C420.3,341.98,417.81,342.59,414.94,342.58z M414.99,336.47c1.31,0,2.4-0.37,3.28-1.11
			c0.88-0.74,1.54-1.76,2-3.06s0.68-2.77,0.69-4.42c0.01-1.65-0.22-3.13-0.66-4.43s-1.11-2.32-1.98-3.08
			c-0.87-0.76-1.97-1.14-3.27-1.14c-1.32,0-2.43,0.37-3.33,1.12c-0.9,0.75-1.57,1.77-2.03,3.07c-0.45,1.29-0.68,2.77-0.69,4.42
			c0,1.65,0.22,3.13,0.66,4.43c0.45,1.3,1.12,2.32,2.01,3.07C412.57,336.09,413.67,336.46,414.99,336.47z"/>
		<path class="st0" d="M446.14,352.78l0.12-39.1l7.77,0.02l-0.01,4.78l0.35,0c0.35-0.76,0.85-1.54,1.52-2.34s1.53-1.46,2.6-1.99
			c1.07-0.53,2.4-0.8,3.99-0.79c2.07,0.01,3.98,0.55,5.73,1.64c1.75,1.09,3.15,2.71,4.19,4.88c1.04,2.17,1.56,4.88,1.55,8.14
			c-0.01,3.17-0.53,5.85-1.55,8.02c-1.02,2.18-2.41,3.82-4.16,4.93c-1.75,1.11-3.7,1.66-5.86,1.66c-1.53,0-2.83-0.26-3.89-0.77
			c-1.07-0.51-1.94-1.15-2.61-1.92c-0.68-0.77-1.19-1.56-1.55-2.35l-0.24,0l-0.05,15.22L446.14,352.78z M453.93,327.92
			c-0.01,1.69,0.22,3.17,0.69,4.43c0.46,1.26,1.14,2.24,2.03,2.94c0.89,0.7,1.96,1.05,3.24,1.06c1.28,0,2.37-0.35,3.26-1.05
			c0.89-0.71,1.57-1.69,2.04-2.96s0.7-2.72,0.71-4.38c0-1.64-0.22-3.09-0.67-4.33s-1.12-2.23-2.01-2.93s-1.98-1.06-3.27-1.06
			c-1.28,0-2.37,0.33-3.25,1.01c-0.88,0.68-1.56,1.64-2.04,2.88C454.17,324.77,453.94,326.23,453.93,327.92z"/>
		<path class="st0" d="M487.14,304.33l-0.12,37.91l-7.89-0.02l0.12-37.91L487.14,304.33z"/>
		<path class="st0" d="M501.42,342.82c-1.81-0.01-3.43-0.33-4.85-0.97c-1.42-0.64-2.53-1.59-3.35-2.84
			c-0.82-1.25-1.22-2.82-1.22-4.7c0-1.58,0.3-2.91,0.88-3.98c0.58-1.07,1.38-1.93,2.38-2.58c1-0.65,2.14-1.14,3.42-1.47
			c1.28-0.33,2.62-0.56,4.03-0.69c1.65-0.17,2.99-0.33,4-0.48c1.01-0.15,1.75-0.38,2.21-0.69s0.69-0.76,0.69-1.37l0-0.11
			c0-1.17-0.36-2.08-1.09-2.72c-0.73-0.64-1.77-0.97-3.12-0.97c-1.42,0-2.55,0.3-3.39,0.92s-1.4,1.4-1.67,2.34l-7.29-0.61
			c0.38-1.73,1.11-3.22,2.2-4.48c1.09-1.26,2.5-2.23,4.22-2.91c1.72-0.68,3.72-1.02,5.99-1.01c1.58,0,3.09,0.19,4.54,0.57
			c1.45,0.37,2.74,0.95,3.86,1.73c1.13,0.78,2.02,1.78,2.67,3c0.65,1.22,0.97,2.67,0.97,4.36l-0.06,19.18l-7.48-0.02l0.01-3.94
			l-0.22,0c-0.46,0.89-1.07,1.67-1.84,2.34c-0.77,0.67-1.69,1.19-2.76,1.56S502.83,342.83,501.42,342.82z M503.7,337.39
			c1.16,0,2.19-0.23,3.08-0.68c0.89-0.46,1.59-1.08,2.1-1.87c0.51-0.79,0.76-1.68,0.77-2.68l0.01-3.02
			c-0.25,0.16-0.58,0.3-1.01,0.43c-0.43,0.13-0.9,0.24-1.44,0.35c-0.53,0.1-1.06,0.19-1.59,0.27c-0.53,0.08-1.01,0.15-1.44,0.21
			c-0.93,0.13-1.73,0.35-2.43,0.64c-0.69,0.29-1.23,0.69-1.61,1.19c-0.38,0.5-0.58,1.12-0.58,1.86c0,1.07,0.39,1.89,1.17,2.46
			C501.49,337.1,502.49,337.38,503.7,337.39z"/>
		<path class="st0" d="M527.36,353.03c-1,0-1.93-0.08-2.8-0.24c-0.87-0.16-1.59-0.35-2.15-0.59l1.79-5.88
			c0.92,0.29,1.76,0.44,2.51,0.47c0.75,0.03,1.4-0.14,1.95-0.51c0.55-0.37,1-1,1.35-1.88l0.47-1.2l-10.11-29.28l8.29,0.03l5.82,20.9
			l0.3,0l6.01-20.86l8.35,0.03l-11.15,31.47c-0.54,1.53-1.26,2.86-2.17,4c-0.91,1.14-2.06,2.02-3.44,2.64
			S529.31,353.03,527.36,353.03z"/>
		<path class="st0" d="M575.64,342.98c-2.16-0.01-4.11-0.57-5.85-1.69c-1.74-1.12-3.12-2.77-4.13-4.96
			c-1.01-2.18-1.51-4.86-1.5-8.03c0.01-3.26,0.54-5.97,1.6-8.13s2.46-3.78,4.21-4.86c1.75-1.08,3.67-1.61,5.75-1.6
			c1.59,0,2.92,0.28,3.99,0.82c1.07,0.54,1.93,1.21,2.58,2.01s1.16,1.58,1.5,2.35l0.24,0l0.04-14.25l7.87,0.02l-0.12,37.91
			l-7.77-0.02l0.01-4.55l-0.33,0c-0.37,0.79-0.9,1.57-1.57,2.34c-0.68,0.77-1.55,1.41-2.62,1.91
			C578.47,342.73,577.17,342.98,575.64,342.98z M578.16,336.71c1.27,0,2.35-0.34,3.23-1.04c0.88-0.69,1.57-1.67,2.05-2.93
			c0.48-1.26,0.72-2.73,0.73-4.42c0-1.69-0.23-3.16-0.69-4.41c-0.47-1.25-1.14-2.21-2.03-2.89c-0.89-0.68-1.96-1.02-3.24-1.03
			c-1.3,0-2.39,0.34-3.28,1.05c-0.89,0.7-1.57,1.67-2.03,2.92c-0.46,1.25-0.69,2.69-0.7,4.33c-0.01,1.65,0.22,3.11,0.68,4.38
			s1.13,2.26,2.01,2.97C575.77,336.35,576.86,336.7,578.16,336.71z"/>
		<path class="st0" d="M611.12,343.18c-2.88-0.01-5.36-0.63-7.44-1.86c-2.09-1.23-3.7-2.95-4.83-5.16
			c-1.13-2.21-1.69-4.77-1.68-7.68c0.01-2.94,0.58-5.51,1.73-7.71c1.14-2.2,2.76-3.91,4.86-5.13s4.58-1.83,7.46-1.82
			s5.36,0.63,7.45,1.86c2.09,1.23,3.7,2.95,4.83,5.16c1.13,2.21,1.69,4.78,1.68,7.72c-0.01,2.91-0.58,5.47-1.73,7.67
			c-1.14,2.2-2.76,3.91-4.86,5.13C616.48,342.58,614,343.19,611.12,343.18z M611.18,337.07c1.31,0,2.4-0.37,3.28-1.11
			c0.88-0.74,1.54-1.76,2-3.06s0.68-2.77,0.69-4.42c0.01-1.65-0.22-3.13-0.66-4.43s-1.11-2.32-1.98-3.08
			c-0.87-0.76-1.97-1.14-3.27-1.14c-1.32,0-2.43,0.37-3.33,1.12c-0.9,0.75-1.57,1.77-2.03,3.07c-0.45,1.29-0.68,2.77-0.69,4.42
			c0,1.65,0.22,3.13,0.66,4.43c0.45,1.3,1.12,2.32,2.01,3.07S609.86,337.06,611.18,337.07z"/>
		<path class="st0" d="M650.29,326.3l-0.05,16.44l-7.89-0.02l0.09-28.43l7.52,0.02l-0.02,5.02l0.33,0c0.63-1.65,1.69-2.96,3.18-3.92
			c1.48-0.96,3.28-1.44,5.39-1.44c1.97,0.01,3.69,0.44,5.16,1.31c1.47,0.87,2.6,2.1,3.41,3.7s1.21,3.51,1.2,5.71l-0.06,18.1
			l-7.89-0.02l0.05-16.7c0.02-1.74-0.42-3.1-1.32-4.09c-0.9-0.98-2.14-1.48-3.72-1.48c-1.06,0-2,0.22-2.81,0.68
			c-0.81,0.45-1.44,1.12-1.9,1.98C650.54,324.04,650.31,325.08,650.29,326.3z"/>
		<path class="st0" d="M687.61,343.41c-2.88-0.01-5.36-0.63-7.44-1.86c-2.09-1.23-3.7-2.95-4.83-5.16
			c-1.13-2.21-1.69-4.77-1.68-7.68c0.01-2.94,0.58-5.51,1.73-7.71c1.14-2.2,2.76-3.91,4.86-5.13s4.58-1.83,7.46-1.82
			s5.36,0.63,7.45,1.86c2.09,1.23,3.7,2.96,4.83,5.16c1.13,2.21,1.69,4.78,1.68,7.72c-0.01,2.91-0.58,5.47-1.73,7.67
			c-1.14,2.2-2.76,3.91-4.86,5.13C692.98,342.81,690.49,343.42,687.61,343.41z M687.67,337.3c1.31,0,2.4-0.37,3.28-1.11
			c0.88-0.74,1.54-1.76,2-3.06s0.68-2.77,0.69-4.42c0.01-1.65-0.22-3.13-0.66-4.43s-1.11-2.32-1.98-3.08
			c-0.87-0.76-1.97-1.14-3.27-1.14c-1.32,0-2.43,0.37-3.33,1.12c-0.9,0.75-1.57,1.77-2.03,3.07c-0.45,1.29-0.68,2.77-0.69,4.42
			c0,1.65,0.22,3.13,0.66,4.43c0.45,1.3,1.12,2.32,2.01,3.07C685.24,336.92,686.35,337.3,687.67,337.3z"/>
		<path class="st0" d="M730.48,322.66l-7.22,0.42c-0.12-0.62-0.39-1.18-0.79-1.68c-0.41-0.5-0.94-0.9-1.6-1.21
			c-0.66-0.3-1.45-0.46-2.36-0.46c-1.22,0-2.25,0.25-3.09,0.76c-0.84,0.51-1.26,1.19-1.27,2.04c0,0.68,0.27,1.25,0.81,1.72
			c0.54,0.47,1.47,0.85,2.79,1.14l5.14,1.05c2.76,0.58,4.82,1.5,6.17,2.76c1.35,1.26,2.03,2.92,2.02,4.97
			c-0.01,1.86-0.56,3.5-1.65,4.9c-1.1,1.4-2.59,2.49-4.49,3.27s-4.08,1.16-6.55,1.16c-3.76-0.01-6.76-0.81-8.98-2.39
			c-2.22-1.58-3.52-3.73-3.9-6.44l7.76-0.38c0.23,1.15,0.8,2.02,1.69,2.63c0.9,0.6,2.05,0.9,3.46,0.91c1.38,0,2.5-0.26,3.34-0.79
			c0.85-0.53,1.28-1.23,1.29-2.08c-0.01-0.72-0.31-1.31-0.9-1.77s-1.5-0.82-2.74-1.07l-4.92-1c-2.78-0.56-4.84-1.53-6.18-2.91
			c-1.35-1.37-2.02-3.12-2.01-5.25c0.01-1.83,0.51-3.4,1.5-4.72c1-1.32,2.4-2.33,4.21-3.04c1.81-0.71,3.93-1.06,6.36-1.05
			c3.59,0.01,6.42,0.78,8.48,2.3C728.94,317.97,730.14,320.04,730.48,322.66z"/>
		<path class="st0" d="M759.76,322.75l-7.22,0.42c-0.12-0.62-0.39-1.18-0.79-1.68c-0.41-0.5-0.94-0.9-1.6-1.21
			c-0.66-0.3-1.45-0.46-2.36-0.46c-1.22,0-2.25,0.25-3.09,0.76c-0.84,0.51-1.26,1.19-1.27,2.04c0,0.68,0.27,1.25,0.81,1.72
			c0.54,0.47,1.47,0.85,2.79,1.14l5.14,1.05c2.76,0.58,4.82,1.5,6.17,2.76c1.35,1.26,2.03,2.92,2.02,4.97
			c-0.01,1.86-0.56,3.5-1.65,4.9c-1.1,1.4-2.59,2.49-4.49,3.27c-1.9,0.78-4.08,1.16-6.55,1.16c-3.76-0.01-6.76-0.81-8.98-2.39
			c-2.22-1.58-3.52-3.73-3.9-6.44l7.76-0.38c0.23,1.15,0.8,2.02,1.69,2.63c0.9,0.6,2.05,0.9,3.46,0.91c1.38,0,2.5-0.26,3.34-0.8
			c0.85-0.53,1.28-1.23,1.29-2.08c-0.01-0.72-0.31-1.31-0.9-1.77c-0.59-0.46-1.5-0.82-2.74-1.07l-4.92-1
			c-2.78-0.56-4.84-1.53-6.18-2.91c-1.35-1.37-2.02-3.12-2.01-5.25c0.01-1.83,0.51-3.4,1.5-4.72c1-1.32,2.4-2.33,4.21-3.04
			c1.81-0.71,3.93-1.06,6.36-1.05c3.59,0.01,6.42,0.78,8.48,2.3C758.23,318.06,759.43,320.13,759.76,322.75z"/>
		<path class="st0" d="M778.17,343.69c-2.88-0.01-5.36-0.63-7.44-1.86c-2.09-1.23-3.7-2.95-4.83-5.16
			c-1.13-2.21-1.69-4.77-1.68-7.68c0.01-2.94,0.58-5.51,1.73-7.71c1.14-2.2,2.76-3.91,4.86-5.13c2.1-1.22,4.58-1.83,7.46-1.82
			s5.36,0.63,7.45,1.87c2.09,1.23,3.7,2.95,4.83,5.16c1.13,2.21,1.69,4.78,1.68,7.72c-0.01,2.91-0.58,5.47-1.73,7.67
			c-1.14,2.2-2.76,3.91-4.86,5.13C783.53,343.09,781.05,343.7,778.17,343.69z M778.23,337.58c1.31,0,2.4-0.37,3.28-1.11
			c0.88-0.74,1.54-1.76,2-3.06s0.68-2.77,0.69-4.42c0.01-1.65-0.22-3.13-0.66-4.43s-1.11-2.32-1.98-3.08
			c-0.87-0.76-1.97-1.14-3.27-1.14c-1.32,0-2.43,0.37-3.33,1.12c-0.9,0.75-1.57,1.77-2.03,3.07s-0.68,2.77-0.69,4.42
			c0,1.65,0.22,3.13,0.66,4.43s1.12,2.32,2.01,3.07C775.8,337.2,776.91,337.57,778.23,337.58z"/>
	</g>
	<g>
		<path class="st0" d="M91.81,601.83c-5.04-0.02-11.29-0.73-18.73-2.15l-0.35,0l0-0.58c0.23-0.16,5.04-5.09,14.42-14.79
			c9.38-9.71,14.07-14.87,14.07-15.49c-0.85-2.41-1.73-4.46-2.66-6.18c-1.85-3.34-2.77-6.53-2.76-9.55
			c0.02-5.27,2.84-15.02,8.47-29.24c5.63-14.22,16.48-38.1,32.57-71.64c0.47-0.62,0.7-1.28,0.7-1.98c0-0.39-0.15-0.85-0.46-1.4
			c0-0.85,1.29-3.52,3.86-8.02c2.03-3.1,3.04-5.03,3.04-5.81c-0.78,0.15-3.57,1.08-8.39,2.77c-8.39,2.92-12.58,4.89-12.59,5.9
			c0,0.54,0.23,1.05,0.69,1.51c0.46,0.47,0.7,0.86,0.69,1.17c0,0.54-1.21,0.81-3.61,0.8c-3.18-0.01-9.46-0.49-18.85-1.45
			c-4.5-0.4-6.75-1.18-6.74-2.35c0-0.31,0.16-0.66,0.47-1.05c3.97-4.8,7.94-8.9,11.91-12.3c8.48-7.19,24.17-13.46,47.07-18.82
			c15.76-3.52,28.14-5.27,37.14-5.24c7.29,0.02,12.87,0.95,16.75,2.79c3.87,1.84,6.79,4.21,8.76,7.13c1.97,2.92,3.61,6.04,4.92,9.38
			c1.16,2.56,2.43,5.09,3.82,7.58c2.08,3.73,3.12,7.57,3.11,11.53c-0.03,9.7-5.89,22.09-17.57,37.18l-1.64,2.55
			c-0.39,0-1.79,1.59-4.2,4.76c-17.37,23.53-53.64,60.89-108.8,112.08C96,601.53,94.29,601.84,91.81,601.83z M118.96,552.81
			l0.58-0.58c1.79-1.54,5.78-5.2,11.96-10.96c6.19-5.76,13.4-12.88,21.65-21.35c8.25-8.47,16.34-17.48,24.29-27.04
			c7.94-9.56,14.6-18.9,19.98-28.04c5.38-9.14,8.08-17.12,8.1-23.95c0.02-7.45-3.65-12.65-11.01-15.63
			c-0.54-0.16-1.4-0.24-2.56-0.24c-2.33-0.01-5.41,0.26-9.25,0.79c-3.84,0.53-7.35,1.1-10.54,1.71c-3.18,0.61-5.2,1.07-6.05,1.38
			c1.7,0.47,2.96,0.98,3.78,1.52c0.81,0.55,1.22,1.32,1.22,2.33c0,1.24-0.53,2.97-1.59,5.17c-1.05,2.21-2.6,5.25-4.62,9.12
			C151.48,471.92,136.16,507.17,118.96,552.81z"/>
		<path class="st0" d="M232.73,565.02c-1.71,0-4.19-0.52-7.44-1.54c-3.26-1.02-6.61-2.48-10.05-4.39c-3.45-1.91-6.39-4.09-8.82-6.54
			c-2.44-2.45-3.69-5.19-3.76-8.22c0.25-7.29,3.07-15.74,8.46-25.34l0.35-0.81l-0.11-0.7l-2.68-0.01c-4.11-0.01-6.17-0.48-6.16-1.42
			c0-0.77,0.86-2.09,2.57-3.95c0.78-0.77,2.1-2.36,3.97-4.76c3.58-4.95,6-7.7,7.24-8.24l5.59-1.61c1.47-0.46,6.11-7.12,13.91-19.97
			c0.39-0.39,1.09-1.47,2.1-3.25l0-0.23c-2.1,0.38-3.15,1.12-3.15,2.2c0,0.47-0.27,0.7-0.82,0.7c-1.55-0.16-5.43-1.68-11.62-4.57
			c-6.9-3.2-10.38-5.66-10.45-7.36c0-0.47,0.31-0.85,0.93-1.16c10.72-5.09,22.87-8.93,36.46-11.52c15.29-2.9,28.56-4.33,39.81-4.3
			c14.12,0.04,21.25,1.97,21.39,5.77c-0.16,1.79-0.24,3.53-0.25,5.24c0.07,2.64,0.26,4.99,0.56,7.04c0.3,2.06,0.45,3.98,0.45,5.76
			c-0.01,2.87-1.06,4.3-3.15,4.3c-2.72-0.01-8.1-2.39-16.15-7.15c-0.46-0.31-1.28-0.47-2.44-0.47c-1.71,0-3.76,0.11-6.17,0.33
			c-3.18,0.3-7.57,0.6-13.15,0.89c-3.96,0.14-5.94,0.87-5.94,2.19c0,0.47,0.13,1.11,0.4,1.92c0.27,0.82,0.4,2.08,0.4,3.78
			c0,1.24-0.32,2.75-0.94,4.54c-0.47,1.32-0.86,2.02-1.17,2.09c-0.23,0-0.52-0.12-0.87-0.35c-0.35-0.23-0.83-0.43-1.45-0.59
			c-0.39,0-1.24,0.97-2.57,2.9c-1.09,1.55-1.83,2.67-2.22,3.37c0,0.16,0.42,0.23,1.28,0.24c1.94-0.23,3.41-0.34,4.42-0.34
			c1.71,0,2.97,0.49,3.78,1.47c0.81,0.97,1.56,2.35,2.26,4.14c1.39,3.11,3.39,6.37,6.02,9.79c1.23,1.63,1.85,2.84,1.85,3.61
			c0,0.78-1.32,1.2-3.96,1.27l-2.09-0.12c-4.73,0.06-9.41,0.15-14.02,0.25c-4.62,0.1-8.34,0.83-11.18,2.18
			c-2.84,1.35-5.6,4.37-8.29,9.05c-2.69,4.69-5.91,11.87-9.67,21.56l-0.12,0.46c0.15,1.17,1.2,1.75,3.14,1.76
			c1.4,0,2.52-0.23,3.38-0.69c11.66-7.26,19.51-12.04,23.55-14.36c2.87-1.62,4.93-2.43,6.17-2.42c1.16,0,1.78,1.17,1.85,3.5
			c-0.02,6.13,0.2,10.51,0.66,13.15l0.11,1.63c0,0.7-0.24,1.36-0.7,1.97c-1.01,1.32-6.49,4.87-16.44,10.66
			C241.15,562.26,236.14,564.49,232.73,565.02z"/>
		<path class="st0" d="M334.56,597.45c-0.31,0-0.62-0.2-0.93-0.58c-4.79-7.15-7.72-11.7-8.8-13.64c-1.23-2.33-1.85-4.82-1.84-7.45
			c0.01-3.1,0.85-7.04,2.54-11.8c1.68-4.77,4.24-11.45,7.68-20.05c3.05-7.67,6.84-17.39,11.38-29.17c-1.01,0.39-2.9,2.4-5.66,6.03
			c-2.77,3.64-5.65,7.66-8.65,12.08c-3,4.41-5.32,7.94-6.96,10.57l-1.64,2.32l-0.47,0.23c-0.93,0-2.28-1.34-4.06-4.03
			c-1.78-2.68-3.44-5.48-4.98-8.39c-1.54-2.91-2.53-4.93-2.95-6.06c-0.42-1.13-0.63-2.62-0.63-4.48c0.01-2.25,0.15-4.77,0.43-7.56
			c0.28-2.79,0.42-5.27,0.43-7.45c-0.39,0.39-1.95,3.56-4.68,9.53c-2.19,4.8-3.51,7.79-3.98,8.95c0,0.08-0.04,0.12-0.12,0.12
			c-3.28,7.67-5.39,13.37-6.34,17.09c-0.08,0.31-0.35,0.54-0.82,0.7c-2.88,1.7-6.76,4.98-11.67,9.86c-1.48,1.55-2.49,2.32-3.03,2.32
			c-0.39,0-0.85-1.44-1.38-4.31c-1.61-6.6-2.52-11.88-2.74-15.83c0.02-6.44,8.42-26.19,25.2-59.27
			c5.85-11.46,9.83-18.94,11.94-22.42c0.16-0.23,0.31-0.52,0.47-0.87c0.16-0.35,0.43-0.52,0.82-0.52c0.54,0,4.88,2.19,13.01,6.56
			c4.03,2.26,6.04,3.7,6.04,4.32c0,0.23-0.08,0.45-0.23,0.64c-0.16,0.19-0.29,0.39-0.41,0.58c-0.12,0.19-0.18,0.48-0.18,0.87
			c0,0.39,0.11,0.85,0.34,1.4c1.16,2.72,1.72,6.99,1.71,12.81l-0.15,10.59c0,1.09,0.03,1.71,0.11,1.86l12.85-15.67
			c6.23-7.74,11.15-13.68,14.77-17.82c3.62-4.14,6.56-6.98,8.81-8.53c2.25-1.54,4.62-2.31,7.1-2.31c2.09,0.01,5.93,0.56,11.52,1.66
			c3.88,0.56,5.81,1.18,5.81,1.88c0,0.39-0.2,0.93-0.59,1.63c-3.9,7.98-9.59,20.82-17.05,38.52c-7.46,17.7-14.42,34.98-20.87,51.84
			s-9.68,26.79-9.69,29.82c0,0.39,0.25,0.64,0.75,0.76c0.5,0.12,0.76,0.41,0.75,0.88c0,0.7-0.74,2.09-2.22,4.18
			c-2.42,3.41-4.44,6.97-6.08,10.69C337.05,595.13,335.49,597.45,334.56,597.45z"/>
		<path class="st0" d="M389.11,569.22c-3.26-0.01-6.13-0.68-8.6-2c-5.5-2.96-8.23-9.06-8.21-18.29c0.02-6.98,1.35-15.16,3.97-24.54
			c2.63-9.38,6.11-18.95,10.44-28.71c4.33-9.76,9.15-18.8,14.45-27.13c5.3-8.32,10.73-15.09,16.3-20.31
			c5.56-5.22,10.79-7.82,15.68-7.81c2.48,0.01,4.81,0.79,6.97,2.35c6.73,4.68,11.88,8.61,15.44,11.8c3.56,3.19,5.76,6.69,6.6,10.49
			c-0.04,12.26-1.74,23.72-5.11,34.37c-3.37,10.66-7.76,20.28-13.18,28.88c-5.42,8.59-11.36,15.95-17.81,22.06
			c-6.46,6.11-12.93,10.78-19.42,14.02C400.15,567.63,394.31,569.24,389.11,569.22z M395.93,545.51c2.64,0.01,6.88-3.28,12.71-9.85
			c5.84-6.58,11.72-14.88,17.65-24.91c5.93-10.03,10.65-20.47,14.18-31.32c0.08-0.31,0.12-0.74,0.12-1.28
			c0-1.32-0.22-3.18-0.68-5.59c-0.46-2.41-1.03-4.58-1.73-6.52c-0.69-1.94-1.35-2.91-1.97-2.92l-0.35,0.12
			c-2.8,2.24-4.2,3.83-4.2,4.76c0,0.54,0.54,1.13,1.62,1.75c1.63,1.01,2.44,2.53,2.43,4.55c0,0.85-0.16,1.44-0.47,1.74
			c-0.31,0.31-2.14,0.89-5.47,1.73c-3.65,0.77-5.71,1.26-6.17,1.49c-0.47,0-1.24,0.73-2.33,2.2c-1.64,2.09-2.45,3.48-2.46,4.18
			c0,0.54,0.15,1.07,0.46,1.57c0.31,0.51,0.46,0.87,0.46,1.11c-0.23,0.46-0.47,0.7-0.7,0.7l-0.81-0.12c-0.85,0-1.9,0.85-3.15,2.55
			c-1.56,2.01-4.09,6.5-7.6,13.48c-9.13,18.59-13.71,30.91-13.73,36.96C393.72,544.3,394.46,545.5,395.93,545.51z"/>
	</g>
	<g>
		<path class="st0" d="M519.3,597.52c-1.07,0-1.61-0.39-1.6-1.15c0-1.61,2.37-10.52,7.09-26.74c0-0.76-0.3-1.19-0.92-1.27
			c-5.13,0.37-8.69,0.55-10.68,0.54c-0.92,0-1.65-0.08-2.18-0.24c-0.53-0.15-0.8-0.61-0.8-1.38c-0.29-5.9-0.81-10.07-1.57-12.52
			c-0.46-1.45-0.68-2.68-0.68-3.68c0-1.15,0.43-2.24,1.27-3.27c0.85-1.03,2.42-2.35,4.72-3.95c3.91-2.59,10.97-7.16,21.17-13.72
			c1.07-1.07,3.62-6.34,7.63-15.83c10.25-23.78,20.81-45.11,31.67-63.99c0.62-0.99,0.93-2.1,0.93-3.33
			c-17,1.71-29.99,5.31-38.97,10.79c-1.92,1.22-3.34,1.83-4.26,1.82c-0.84,0-1.42-0.65-1.72-1.96c-0.3-1.3-1.06-5.94-2.25-13.9
			c-0.15-0.69-0.34-1.34-0.57-1.95c-0.23-0.61-0.34-1.23-0.34-1.84c0.01-1.91,2.96-3.74,8.86-5.49c6.9-1.97,21.19-4.76,42.87-8.37
			c13.86-2.25,26.69-3.36,38.49-3.33c13.09,0.04,24.36,1.34,33.81,3.89c9.45,2.56,16.19,6.14,20.24,10.74
			c1.22,1.46,1.83,3.15,1.82,5.06c-0.02,7.58-9.63,19.19-28.82,34.83c-11.59,9.38-30.05,22.8-55.37,40.26
			c-10.36,7.01-18.95,13.02-25.78,18.01c-6.83,4.99-10.25,8.29-10.25,9.9c0,0.61,0.61,0.92,1.83,0.92
			c12.33,0.11,25.36,1.15,39.1,3.11c13.74,1.96,23.34,3.79,28.81,5.49c5.47,1.7,9.46,3.4,11.99,5.09c2.52,1.69,3.78,2.96,3.78,3.8
			c0,0.38-0.16,0.65-0.46,0.8c-12.04,6.93-18.56,10.39-19.56,10.39c-0.54,0-0.8-0.27-0.8-0.81c0-1.3-2.1-2.38-6.31-3.24
			c-4.21-0.85-11.84-1.87-22.9-3.06c-11.06-1.18-19.39-1.78-24.98-1.8c-11.56-0.04-17.57,0.64-18.04,2.01
			c-0.31,1.45-1.41,4.92-3.31,10.38c-1.89,5.47-2.84,8.39-2.84,8.78c0,0.46,0.24,0.94,0.74,1.44c0.5,0.5,0.74,1.02,0.74,1.55
			c0,0.69-0.23,1.28-0.69,1.78c-0.46,0.5-0.92,0.78-1.38,0.86c-4.06,0.98-7.43,1.85-10.12,2.61
			C524.05,596.88,520.91,597.52,519.3,597.52z M571.95,504.99c0.15,0,1.44-0.82,3.86-2.46c2.42-1.64,5.25-3.62,8.52-5.95
			c3.26-2.32,6.35-4.52,9.27-6.58c2.92-2.06,5.02-3.58,6.33-4.57c15.12-10.83,26.59-19.4,34.42-25.74
			c7.83-6.33,11.75-10.95,11.76-13.86c0.01-2.91-4.08-4.38-12.28-4.4c-9.04-0.03-21.21,0.74-36.53,2.3c0,0.46,0.69,1.3,2.06,2.53
			c0.76,0.77,1.14,1.31,1.14,1.61c-0.01,1.84-1.67,5.85-4.98,12.04c-3.31,6.19-6.97,12.8-10.97,19.84
			c-8.47,15.06-12.71,23.35-12.71,24.88L571.95,504.99z"/>
		<path class="st0" d="M661.22,573.49c-1.69,0-4.13-0.51-7.35-1.52c-3.21-1-6.52-2.45-9.92-4.34c-3.4-1.88-6.3-4.04-8.71-6.46
			c-2.4-2.42-3.64-5.12-3.71-8.11c0.25-7.19,3.03-15.53,8.35-25.01l0.35-0.8l-0.11-0.69l-2.64-0.01c-4.06-0.01-6.09-0.48-6.08-1.4
			c0-0.76,0.85-2.06,2.54-3.9c0.77-0.76,2.07-2.33,3.92-4.7c3.54-4.89,5.92-7.6,7.15-8.13l5.52-1.59
			c1.46-0.46,6.03-7.03,13.73-19.71c0.38-0.38,1.08-1.45,2.08-3.21l0-0.23c-2.07,0.38-3.1,1.1-3.11,2.17c0,0.46-0.27,0.69-0.81,0.69
			c-1.53-0.16-5.36-1.66-11.47-4.51c-6.81-3.16-10.24-5.58-10.31-7.27c0-0.46,0.31-0.84,0.92-1.15
			c10.58-5.02,22.58-8.81,35.98-11.38c15.09-2.86,28.19-4.28,39.29-4.25c13.93,0.04,20.97,1.94,21.12,5.69
			c-0.16,1.76-0.24,3.48-0.25,5.17c0.07,2.6,0.25,4.92,0.55,6.95c0.3,2.03,0.45,3.93,0.44,5.69c-0.01,2.83-1.05,4.25-3.11,4.24
			c-2.68-0.01-7.99-2.36-15.94-7.05c-0.46-0.31-1.26-0.46-2.41-0.47c-1.69,0-3.71,0.1-6.09,0.33c-3.14,0.3-7.47,0.59-12.98,0.88
			c-3.91,0.14-5.86,0.86-5.86,2.16c0,0.46,0.13,1.09,0.4,1.9c0.27,0.8,0.4,2.05,0.39,3.73c0,1.23-0.31,2.72-0.93,4.48
			c-0.46,1.3-0.85,1.99-1.15,2.06c-0.23,0-0.52-0.12-0.86-0.35c-0.34-0.23-0.82-0.42-1.43-0.58c-0.38,0-1.23,0.95-2.54,2.86
			c-1.08,1.53-1.81,2.64-2.19,3.32c0,0.15,0.42,0.23,1.26,0.23c1.91-0.22,3.37-0.33,4.37-0.33c1.68,0,2.93,0.49,3.73,1.45
			c0.8,0.96,1.54,2.32,2.23,4.08c1.37,3.07,3.35,6.29,5.94,9.67c1.22,1.61,1.83,2.8,1.83,3.57c0,0.77-1.31,1.18-3.91,1.25
			l-2.07-0.12c-4.67,0.06-9.29,0.14-13.84,0.25c-4.56,0.1-8.23,0.82-11.03,2.15c-2.8,1.33-5.53,4.31-8.18,8.93
			c-2.66,4.63-5.84,11.72-9.54,21.28l-0.12,0.46c0.15,1.15,1.18,1.73,3.1,1.73c1.38,0,2.49-0.22,3.33-0.68
			c11.51-7.16,19.25-11.89,23.24-14.17c2.84-1.6,4.87-2.4,6.1-2.39c1.15,0,1.76,1.15,1.83,3.45c-0.02,6.05,0.2,10.38,0.65,12.98
			l0.11,1.61c0,0.69-0.23,1.34-0.7,1.95c-1,1.3-6.41,4.8-16.23,10.52C669.53,570.76,664.59,572.96,661.22,573.49z"/>
		<path class="st0" d="M738.4,573.72c-1.69-0.01-4.13-0.51-7.35-1.52c-3.21-1-6.52-2.45-9.92-4.34c-3.4-1.89-6.3-4.04-8.71-6.46
			c-2.4-2.42-3.64-5.12-3.71-8.11c0.25-7.2,3.03-15.53,8.35-25.01l0.35-0.8l-0.11-0.69l-2.64-0.01c-4.06-0.01-6.09-0.48-6.08-1.4
			c0-0.76,0.85-2.06,2.54-3.9c0.77-0.76,2.07-2.33,3.92-4.7c3.54-4.89,5.92-7.6,7.15-8.13l5.52-1.59
			c1.46-0.46,6.03-7.03,13.73-19.71c0.38-0.38,1.08-1.45,2.08-3.21l0-0.23c-2.07,0.38-3.1,1.1-3.11,2.17c0,0.46-0.27,0.69-0.81,0.69
			c-1.53-0.16-5.36-1.66-11.47-4.51c-6.81-3.16-10.24-5.58-10.31-7.27c0-0.46,0.31-0.84,0.92-1.15
			c10.58-5.02,22.58-8.81,35.98-11.38c15.09-2.86,28.19-4.28,39.29-4.24c13.93,0.04,20.97,1.94,21.12,5.69
			c-0.16,1.76-0.24,3.48-0.25,5.17c0.07,2.6,0.25,4.92,0.55,6.95c0.3,2.03,0.45,3.93,0.44,5.69c-0.01,2.83-1.05,4.25-3.11,4.24
			c-2.68-0.01-7.99-2.36-15.94-7.05c-0.46-0.31-1.26-0.46-2.41-0.47c-1.69-0.01-3.71,0.1-6.09,0.33c-3.14,0.3-7.47,0.59-12.98,0.88
			c-3.91,0.14-5.86,0.86-5.86,2.16c0,0.46,0.13,1.09,0.4,1.9c0.27,0.8,0.4,2.05,0.39,3.73c0,1.23-0.31,2.72-0.93,4.48
			c-0.46,1.3-0.85,1.99-1.15,2.06c-0.23,0-0.52-0.12-0.86-0.35c-0.34-0.23-0.82-0.42-1.43-0.58c-0.38,0-1.23,0.95-2.54,2.86
			c-1.08,1.53-1.81,2.64-2.19,3.32c0,0.15,0.42,0.23,1.26,0.23c1.91-0.22,3.37-0.33,4.37-0.33c1.68,0.01,2.93,0.49,3.73,1.45
			c0.8,0.96,1.54,2.32,2.23,4.08c1.37,3.07,3.35,6.29,5.94,9.67c1.22,1.61,1.83,2.8,1.83,3.57c0,0.77-1.31,1.18-3.91,1.25
			l-2.07-0.12c-4.67,0.06-9.29,0.14-13.84,0.24c-4.56,0.1-8.23,0.82-11.03,2.15c-2.8,1.33-5.53,4.31-8.18,8.93
			c-2.66,4.63-5.84,11.72-9.54,21.28l-0.12,0.46c0.15,1.15,1.18,1.73,3.1,1.73c1.38,0,2.49-0.22,3.33-0.68
			c11.51-7.16,19.25-11.89,23.24-14.17c2.84-1.6,4.87-2.4,6.1-2.39c1.15,0,1.76,1.15,1.83,3.45c-0.02,6.05,0.2,10.38,0.65,12.98
			l0.11,1.61c0,0.69-0.23,1.34-0.7,1.95c-1,1.3-6.41,4.8-16.23,10.52C746.71,570.99,741.77,573.2,738.4,573.72z"/>
		<path class="st0" d="M856.93,573.51l-1.26-0.12c-12.78-2.03-19.17-3.39-19.17-4.08c0-0.3,0.08-0.53,0.23-0.69
			c-0.08-0.54-0.96-0.81-2.64-0.81c-1.99-0.01-5.02,0.33-9.08,1.01c-16.93,1.71-29.72,2.55-38.37,2.53
			c-9.34-0.03-18.26-0.86-26.75-2.49c-1.22-0.16-1.84-0.43-1.83-0.81c0-0.46,0.46-1.26,1.39-2.41c1.54-1.68,3.77-5.08,6.69-10.2
			c0.62-1.61,1.31-2.83,2.08-3.67c0.77-0.84,2.8-1.25,6.09-1.24l3.22,0.12c1.68,0.16,3.18,0.24,4.48,0.24
			c2.76,0.01,4.33-0.48,4.71-1.48c0.02-4.98,1.64-11.29,4.88-18.94c3.24-7.65,8.79-19.34,16.65-35.09
			c17.8-36.39,26.89-55.12,27.28-56.2c1.31-2.6,2.12-3.9,2.42-3.9c0.76,0,5.09,1.89,12.96,5.67c4.74,2.39,7.15,4.08,7.22,5.08
			c0,0.54-0.23,1.03-0.69,1.49c-0.77,1.3-1.16,2.79-1.16,4.48l-5.89,11.47c-26.65,51.22-39.98,79.17-40,83.84
			c0,0.46,0.11,0.69,0.34,0.69c17.31-0.79,26.88-1.18,28.72-1.18c2.22,0.01,4.27,0.15,6.14,0.42c1.87,0.27,3.19,1.1,3.95,2.48
			c6.55,10.66,9.82,17.68,9.81,21.05C859.34,572.29,858.54,573.21,856.93,573.51z"/>
	</g>
	<path class="st0" d="M525.21,653.57c2.93,0,5.86-0.04,8.8,0.01c5.29,0.08,10.58,0.27,15.87,0.3c4.65,0.02,9.29-0.2,13.94-0.16
		c5.56,0.04,11.11,0.3,16.66,0.36c5.07,0.06,10.14-0.06,15.21-0.03c3.68,0.02,7.36,0.17,11.04,0.23c6.61,0.12,13.23,0.35,19.84,0.32
		c11.55-0.04,23.1-0.26,34.65-0.37c4.23-0.04,8.47,0.02,12.7,0.03c5.04,0.02,10.08,0.03,15.12,0.07c9.71,0.06,19.43,0.14,29.14,0.2
		c8.77,0.06,17.54,0.05,26.3,0.2c6.47,0.11,12.94,0.46,19.41,0.62c4.51,0.11,9.02-0.01,13.52,0.12c5.48,0.16,10.96,0.43,16.43,0.76
		c1.7,0.1,2.77,1.45,2.69,2.96c-0.09,1.81-1.38,3.38-3.12,3.38c-6.18,0.01-12.37-0.13-18.55-0.15c-4.71-0.01-9.42,0.1-14.13,0.09
		c-1.75,0-3.49-0.28-5.24-0.29c-5.47-0.04-10.94,0.02-16.42-0.03c-5.97-0.05-11.94-0.2-17.91-0.27c-9.1-0.11-18.2-0.2-27.31-0.27
		c-11.13-0.08-22.26-0.12-33.39-0.22c-4.41-0.04-8.83-0.28-13.24-0.32c-7.08-0.06-14.17-0.08-21.25-0.02
		c-6.66,0.06-13.32,0.21-19.98,0.37c-10.09,0.24-20.17,0.51-30.25,0.8c-6.66,0.19-13.31,0.45-19.97,0.69
		c-6.84,0.25-13.69,0.5-20.53,0.8c-7.09,0.32-14.18,0.69-21.27,1.06c-6.78,0.35-13.56,0.7-20.33,1.08
		c-6.71,0.37-13.42,0.77-20.12,1.15c-3.16,0.18-6.33,0.3-9.49,0.5c-6.89,0.45-13.77,0.9-20.66,1.41c-9.7,0.72-19.4,1.49-29.1,2.24
		c-6.51,0.5-13.01,0.98-19.52,1.52c-8.81,0.73-17.62,1.47-26.43,2.27c-7.18,0.65-14.35,1.38-21.52,2.11
		c-6.18,0.63-12.35,1.28-18.52,1.95c-7.66,0.83-15.32,1.69-22.98,2.53c-5.06,0.55-10.12,1.09-15.18,1.62
		c-2.65,0.28-5.32,0.48-7.96,0.82c-4.75,0.61-9.48,1.33-14.23,1.93c-4.99,0.63-10,1.14-15,1.76c-4.12,0.51-8.24,1.11-12.36,1.62
		c-4.95,0.62-9.9,1.18-14.85,1.76c-1.12,0.13-2.29,0.52-3.36,0.32c-1.93-0.35-2.44-2.01-2.42-3.71c0.02-1.59,1.1-2.33,2.62-2.66
		c6.85-1.47,13.69-2.98,20.54-4.49c8.47-1.87,16.95-3.76,25.42-5.63c5.67-1.25,11.33-2.54,17.01-3.74
		c8.43-1.79,16.88-3.51,25.31-5.29c6.74-1.42,13.45-2.94,20.19-4.32c3.14-0.65,6.33-1.08,9.47-2.01c-2.57,0-5.15,0-7.72,0
		c-14.43,0-28.86,0.04-43.29,0c-4.79-0.01-9.58-0.28-14.37-0.33c-5.27-0.06-10.54-0.02-15.81-0.02c-2.6,0-5.21,0.03-7.81-0.02
		c-1.12-0.02-2.28-0.07-3.34-0.37c-1.47-0.42-2.67-1.44-2.37-3.09c0.41-2.3,1.13-3.3,3.09-3.26c5.16,0.11,10.33,0.23,15.49,0.31
		c4.17,0.06,8.34,0.08,12.51,0.1c0.35,0,0.85-0.02,1.03-0.24c1.37-1.66,3.23-1.34,5.02-1.34c5.43,0.02,10.87,0.02,16.3,0.08
		c6.46,0.07,12.92,0.18,19.38,0.28c6.6,0.1,13.2,0.26,19.79,0.29c4.09,0.02,8.17-0.19,12.26-0.19c2.93,0,5.86,0.24,8.8,0.27
		c6.67,0.06,13.35,0.31,19.99-0.01c4.42-0.21,8.81-1.25,13.21-1.97c7.95-1.3,15.9-2.65,23.85-3.97c6.13-1.01,12.27-1.99,18.4-3.01
		c8.74-1.47,17.47-2.99,26.22-4.43c2.94-0.48,5.92-0.72,8.86-1.19c4.94-0.79,9.86-1.75,14.81-2.51c6.27-0.96,12.57-1.76,18.84-2.67
		c8.42-1.22,16.82-2.53,25.24-3.68c6.53-0.89,13.1-1.56,19.64-2.39c5.91-0.75,11.8-1.61,17.71-2.37c4.56-0.58,9.14-1.07,13.71-1.63
		c7.21-0.88,14.42-1.86,21.64-2.68c8.54-0.96,17.1-1.81,25.65-2.68c2.91-0.3,5.83-0.47,8.74-0.81c4.43-0.52,8.83-1.21,13.26-1.68
		c4.71-0.5,9.45-0.82,14.17-1.26c5.95-0.54,11.89-1.14,17.83-1.68c3.71-0.34,7.42-0.63,11.13-0.95c5.04-0.42,10.07-0.88,15.11-1.26
		c4.78-0.37,9.58-0.61,14.36-1c4.39-0.36,8.77-0.84,13.15-1.26c0.25-0.02,0.5-0.07,0.74-0.09c5.53-0.3,11.07-0.54,16.6-0.9
		c4.15-0.27,8.31-0.62,12.45-1.04c1.6-0.16,2.84,0.14,3.56,1.68c0.68,1.45,0.34,3.55-0.88,4.36c-5.02,3.33-9.99,6.73-15.14,9.85
		c-7.25,4.39-15.14,7.34-23.19,9.94c-7.91,2.56-15.92,4.64-24.12,6c-7.47,1.24-14.93,2.55-22.43,3.56
		c-6.54,0.88-13.13,1.35-19.69,2.04c-5.25,0.55-10.49,1.22-15.74,1.73c-4.96,0.48-9.94,0.8-14.9,1.26
		c-4.69,0.43-9.36,1.01-14.05,1.43c-2.61,0.23-5.24,0.2-7.86,0.41c-8.32,0.67-16.63,1.43-24.96,2.07
		c-7.95,0.62-15.91,1.16-23.87,1.69c-8.54,0.56-17.08,1.04-25.61,1.6c-3.59,0.24-7.17,0.59-10.75,0.89
		C525.19,653.47,525.2,653.52,525.21,653.57z M425.72,651.32c0.56,0,1.12,0.02,1.67,0c5.91-0.24,11.82-0.49,17.72-0.74
		c11.64-0.5,23.27-0.98,34.91-1.51c6.96-0.32,13.91-0.7,20.87-1.07c6.84-0.37,13.67-0.74,20.5-1.14
		c10.44-0.62,20.88-1.24,31.31-1.92c7.2-0.47,14.39-1.03,21.58-1.58c7.13-0.54,14.25-1.13,21.38-1.69
		c6.74-0.53,13.49-1.06,20.23-1.59c9.81-0.77,19.63-1.43,29.43-2.36c8.47-0.8,16.9-1.89,25.35-2.9c7.03-0.84,14.08-1.52,21.06-2.67
		c8.19-1.35,16.35-2.95,24.44-4.79c5.23-1.19,10.31-3.03,15.46-4.54c6.65-1.95,12.69-5.27,18.83-8.37c1-0.51,1.9-1.24,3.27-2.16
		C643.36,619.82,534.18,632.78,425.72,651.32z M482.78,659.78c0-0.07,0-0.14,0-0.21c-2.49,0-4.98,0-7.47,0
		c-8.96-0.02-17.92,0-26.88-0.06c-4.6-0.03-9.19-0.26-13.79-0.31c-5.6-0.06-11.2,0.02-16.8-0.03c-2.06-0.02-4.11-0.31-6.17-0.32
		c-4.58-0.02-9.16,0.08-13.74,0.09c-5.31,0.01-10.65-0.44-15.91,0.06c-6.03,0.57-12,1.9-17.97,3.03
		c-7.06,1.34-14.09,2.85-21.14,4.22c-6.34,1.23-12.7,2.3-19.03,3.57c-9.64,1.93-19.26,3.98-28.89,5.98c1.18,0.18,2.3,0.02,3.43-0.1
		c8.48-0.93,16.95-1.87,25.44-2.77c1.86-0.2,3.74-0.19,5.6-0.4c4.55-0.52,9.08-1.22,13.64-1.66c8.05-0.79,16.12-1.43,24.18-2.16
		c7.12-0.65,14.23-1.38,21.35-1.99c5.35-0.46,10.71-0.72,16.06-1.16c8.18-0.68,16.34-1.49,24.52-2.15
		c6.07-0.49,12.15-0.84,18.23-1.21c8.9-0.53,17.81-0.99,26.7-1.55C477,660.47,479.89,660.08,482.78,659.78z"/>
	<path class="st0" d="M967.07,702.79c1.21-2.28,2.89-2.26,4.68-2.15c5.93,0.36,11.86,0.66,17.78,1c0.97,0.06,1.97,0.09,2.87,0.4
		c0.63,0.22,1.54,0.87,1.56,1.37c0.07,1.53,1.1,1.67,2.14,1.96c2.87,0.79,5.76,1.54,8.62,2.39c2.71,0.81,3.31,2.76,1.54,4.98
		c-3.96,4.94-7.99,9.83-11.95,14.77c-3.82,4.77-7.58,9.59-11.36,14.39c-1.98,2.52-3.39,2.76-5.43,0.38
		c-2.96-3.44-5.78-7.01-8.4-10.72c-1.33-1.89-2.08-4.19-3.15-6.44c-3.82,2.27-7.54,4.5-11.28,6.69c-8.35,4.89-17,9.2-26.04,12.61
		c-13.09,4.94-26.35,9.5-40.04,12.45c-14.34,3.1-28.76,5.78-43.19,8.44c-7.38,1.36-14.83,2.36-22.26,3.39
		c-7.57,1.05-15.15,1.99-22.74,2.86c-8.57,0.98-17.14,1.95-25.73,2.68c-6.65,0.57-13.33,0.9-20.01,1.11
		c-8.13,0.25-16.26,0.38-24.39,0.32c-6.69-0.05-13.4-0.12-20.05-0.75c-15.66-1.48-31.27-3.49-46.51-7.53
		c-13.03-3.46-25.95-7.35-38.2-13.06c-12.21-5.69-24.12-11.97-34.96-20.03c-9.86-7.33-19.23-15.27-27.45-24.47
		c-1.3-1.45-2.47-3.01-3.65-4.56c-0.98-1.29-0.8-2.59,0.43-3.65c1.19-1.02,2.62-1.03,3.7,0.14c1.08,1.18,1.95,2.54,3.02,3.74
		c7.64,8.55,16.32,15.92,25.4,22.91c10.56,8.12,22.19,14.29,34.13,20.04c12.84,6.17,26.3,10.46,40.11,13.7
		c8.58,2.02,17.25,3.73,25.95,5.13c6.35,1.02,12.83,1.19,19.23,1.9c11.68,1.3,23.39,1.06,35.09,0.94
		c6.85-0.07,13.71-0.56,20.55-1.02c6.37-0.43,12.73-1.03,19.09-1.64c5.55-0.53,11.09-1.12,16.62-1.8c6.16-0.76,12.3-1.65,18.45-2.48
		c5.67-0.77,11.37-1.41,17.02-2.31c9.63-1.55,19.28-3.03,28.84-4.98c11.11-2.27,22.19-4.76,33.16-7.62
		c7.2-1.88,14.19-4.56,21.24-6.96c12.85-4.37,24.82-10.57,36.3-17.75c1.75-1.09,3.56-2.09,5.25-3.26c0.4-0.28,0.76-1.13,0.64-1.58
		c-1.58-5.89-2.21-11.86-1.82-17.95c0.15-2.3,0.91-3.13,3-2.99c1.78,0.12,2.62,1.34,2.37,3.44
		C967.18,701.58,967.16,701.92,967.07,702.79z M999.61,711.95c-0.08-0.11-0.15-0.22-0.23-0.34c-0.44,0.13-0.96,0.15-1.32,0.4
		c-2.02,1.42-4.02,2.86-5.97,4.37c-0.49,0.38-1.13,1.03-1.11,1.53c0.06,1.25,0.47,2.47,0.79,3.99
		C994.51,718.42,997.06,715.18,999.61,711.95z M986.39,728.7c-3.14,1.72-5.78,4.28-9.98,4.33c1.29,1.51,2.29,2.67,3.41,3.99
		C982.09,734.15,984.24,731.42,986.39,728.7z M972.26,725.83c0.56-1.18,1.09-2.46,1.76-3.67c0.41-0.74,1.1-1.33,1.54-2.07
		c0.19-0.31,0.07-0.8,0.09-1.21c-0.41-0.02-0.94-0.21-1.21-0.03c-1.36,0.94-2.64,1.99-3.99,3.02
		C971.15,723.39,971.78,724.78,972.26,725.83z M970.44,706.52c-1.18-0.59-2.28-1.14-3.39-1.69c0.07,0.85,0.16,1.93,0.27,3.2
		C968.59,707.42,969.55,706.95,970.44,706.52z"/>
</g>
</svg>
