<svg xmlns="http://www.w3.org/2000/svg" width="36" height="36" viewBox="0 0 36 36">
  <g id="Grupo_8" data-name="Grupo 8" transform="translate(-351 -4018)">
    <g id="Grupo_7" data-name="Grupo 7" transform="translate(-47)">
      <rect id="Retângulo_80" data-name="Retângulo 80" width="36" height="36" transform="translate(398 4018)" fill="none"/>
    </g>
    <path id="icons8-facebook" d="M28,7H12a4,4,0,0,0-4,4V27a4,4,0,0,0,4,4h8.5V22.5h-3V19h3V16.5c0-3.5,2-5.5,5-5.5a5.7,5.7,0,0,1,2.5.5v3H26a1.89,1.89,0,0,0-2,2V19h3.5L27,22.5H24V31h4a4,4,0,0,0,4-4V11A4,4,0,0,0,28,7Z" transform="translate(349 4017)" fill="#252525"/>
  </g>
</svg>
