<svg xmlns="http://www.w3.org/2000/svg" width="36" height="36" viewBox="0 0 36 36">
  <g id="Grupo_6" data-name="Grupo 6" transform="translate(-445 -4018)">
    <rect id="Retângulo_81" data-name="Retângulo 81" width="36" height="36" transform="translate(445 4018)" fill="none"/>
    <path id="linkedin" d="M5.35,3.01c-1.937,0-3.344,1.161-3.344,2.758S3.446,8.582,5.35,8.582c1.937,0,3.344-1.183,3.344-2.847A3.053,3.053,0,0,0,5.35,3.01ZM2.558,9.7A.56.56,0,0,0,2,10.262v16.19a.56.56,0,0,0,.558.558H8.141a.56.56,0,0,0,.558-.558V10.262A.56.56,0,0,0,8.141,9.7Zm8.374,0a.56.56,0,0,0-.558.558v16.19a.56.56,0,0,0,.558.558h5.024a.558.558,0,0,0,.558-.558V17.8a2.5,2.5,0,0,1,2.312-2.5,1.855,1.855,0,0,1,.4,0,2.5,2.5,0,0,1,2.312,2.5v8.653a.558.558,0,0,0,.558.558h5.024a.56.56,0,0,0,.558-.558V16.961c0-3.612-1.938-7.257-6.259-7.257a7.548,7.548,0,0,0-4.348,1.39v-.832a.56.56,0,0,0-.558-.558Z" transform="translate(448.16 4020.99)" fill="#252525"/>
  </g>
</svg>
