<?xml version="1.0" encoding="utf-8"?>
<!-- Generator: Adobe Illustrator 23.0.1, SVG Export Plug-In . SVG Version: 6.00 Build 0)  -->
<svg version="1.1" id="Camada_1" xmlns="http://www.w3.org/2000/svg" xmlns:xlink="http://www.w3.org/1999/xlink" x="0px" y="0px"
	 viewBox="0 0 1920 1080" style="enable-background:new 0 0 1920 1080;" xml:space="preserve">
<style type="text/css">
	.st0{fill:url(#SVGID_1_);}
	.st1{fill:#FFFFFF;}
</style>
<g>
	
		<linearGradient id="SVGID_1_" gradientUnits="userSpaceOnUse" x1="1191.704" y1="-2212.3645" x2="924.7435" y2="958.8053" gradientTransform="matrix(1 0 0 -1 0 1080)">
		<stop  offset="4.469546e-03" style="stop-color:#0000A1"/>
		<stop  offset="1" style="stop-color:#7F14F9"/>
	</linearGradient>
	<circle class="st0" cx="960" cy="540" r="536"/>
	<path class="st1" d="M960.37,657.39c3.06-4.01,4.81-6.86,7.13-9.19c78.05-78.16,156.1-156.31,234.41-234.2
		c4.81-4.81,11.41-8.77,17.9-10.61c10.14-2.85,21.23,3.17,26.62,12.3c5.44,9.24,4.81,20.91-1.8,29.41c-1.85,2.38-4.07,4.49-6.18,6.6
		c-85.28,85.28-170.57,170.62-255.91,255.91c-15.95,15.95-29.47,15.95-45.31,0.11c-85.87-85.87-171.78-171.73-257.65-257.65
		c-16.48-16.48-11.46-40.71,9.51-46.37c10.19-2.75,18.96,0.26,26.3,7.66c14.94,14.94,29.94,29.89,44.89,44.89
		c64.11,64.11,128.22,128.22,192.33,192.38C954.88,650.74,956.67,653.17,960.37,657.39z"/>
</g>
</svg>
