<svg width="181" height="159" viewBox="0 0 181 159" fill="none" xmlns="http://www.w3.org/2000/svg">
<path d="M158.375 0.3125H127.937L127.584 0.666016L82.6873 45.5625H115.246L115.6 45.209L160.425 0.418554C159.754 0.347851 159.082 0.3125 158.375 0.3125ZM181 45.5625V22.9375C181 17.5994 179.126 12.6502 176.051 8.79688L139.285 45.5625H181ZM103.969 0.3125H71.3748L71.0213 0.666016L26.1248 45.5625H58.6836L59.0371 45.209L103.934 0.3125H103.969ZM22.625 0.3125C10.1459 0.3125 0 10.4584 0 22.9375V45.5625H2.15645L2.50996 45.209L47.4064 0.3125H22.625ZM181 56.875H0V136.062C0 148.542 10.1459 158.688 22.625 158.688H158.375C170.854 158.688 181 148.542 181 136.062V56.875Z" fill="white"/>
</svg>
